<svg width="40" height="40" viewBox="0 0 40 40" fill="none" xmlns="http://www.w3.org/2000/svg">
<rect width="40" height="40" rx="5" fill="white"/>
<path d="M16.2909 26.9998C17.8265 27.0087 19.3487 26.7361 20.7693 26.1979C22.1898 25.6596 23.4805 24.8664 24.5663 23.8642C25.6521 22.862 26.5116 21.6707 27.0948 20.3596C27.678 19.0485 27.9733 17.6435 27.9636 16.2262V15.7312C28.7596 15.1929 29.4486 14.5315 30 13.7762C29.2505 14.0787 28.4574 14.2794 27.6455 14.3719C28.5063 13.8985 29.1522 13.1533 29.4636 12.2742C28.6614 12.7185 27.7817 13.0308 26.8636 13.1972C26.2454 12.5892 25.4273 12.1862 24.5359 12.0505C23.6445 11.9149 22.7295 12.0541 21.9325 12.4468C21.1355 12.8394 20.5009 13.4636 20.1269 14.2226C19.7529 14.9816 19.6604 15.8333 19.8636 16.6458C18.2328 16.5719 16.637 16.1818 15.1803 15.5009C13.7236 14.8199 12.4387 13.8635 11.4091 12.6938C10.8899 13.5254 10.7326 14.5081 10.9689 15.4428C11.2052 16.3775 11.8175 17.1944 12.6818 17.7281C12.0442 17.7054 11.4213 17.5445 10.8636 17.2583V17.3002C10.858 18.1694 11.1752 19.014 11.7625 19.6935C12.3497 20.3729 13.1715 20.846 14.0909 21.0341C13.4979 21.1813 12.8766 21.2042 12.2727 21.1012C12.5389 21.8424 13.047 22.4895 13.7273 22.9536C14.4076 23.4178 15.2269 23.6764 16.0727 23.6939C14.6266 24.7683 12.8292 25.3597 10.9727 25.372C10.6472 25.3633 10.3225 25.3381 10 25.2965C11.8791 26.4014 14.0629 26.984 16.2909 26.9746" fill="black"/>
</svg>
